<?xml version="1.0" encoding="UTF-8"?>
<!-- Generator: Adobe Illustrator 26.5.0, SVG Export Plug-In . SVG Version: 6.00 Build 0)  -->
<svg version="1.1" id="Layer_1" xmlns="http://www.w3.org/2000/svg" xmlns:xlink="http://www.w3.org/1999/xlink" x="0px" y="0px" viewBox="0 0 255.1 91.5" style="enable-background:new 0 0 255.1 91.5;" xml:space="preserve">
<style type="text/css">
	.st0{fill:#00DBE9;}
	.st1{fill:#2D3034;}
	.st2{fill-rule:evenodd;clip-rule:evenodd;fill:#2D3034;}
</style>
<circle class="st0" cx="237" cy="79.2" r="8.2"/>
<path class="st1" d="M49.3,25.2c1,0.9,2.6,0.9,3.6-0.1l8.2-8.1c1-1,1-2.5,0-3.5C45.9,0,25.8,0.5,15.5,12c-5.2,5.8-7.9,14.8-4.6,23.4  c3.4,9,12.3,15,25.2,17.2c9.2,1.6,11,5,11.4,6.5c0.6,2.2-0.1,5.5-2.2,8.2c-3,3.8-13.2,6.7-20.8-2.1c-0.9-1-2.4-1.3-3.5-0.6l-9.5,6.5  c-1.1,0.8-1.4,2.3-0.6,3.4C25,92.8,48.5,89.6,58.1,77.6c4.5-5.6,7.7-14.3,5.2-23.1C60.5,45,51.8,38.6,38.8,36.4  c-9.4-1.6-11.9-5.2-12.5-6.9c-0.8-2-0.2-4.6,1.5-6.5C30.6,19.8,39.8,17,49.3,25.2z"/>
<path class="st1" d="M141.4,4.9c-1.4,0-2.5,1.1-2.5,2.5v77.4c0,1.4,1.1,2.5,2.5,2.5H153c1.4,0,2.5-1.1,2.5-2.5V7.3  c0-1.4-1.1-2.5-2.5-2.5L141.4,4.9L141.4,4.9z"/>
<path class="st2" d="M208.6,82.6v2.1c0,1.4,1.1,2.5,2.5,2.5h11.5c1.4,0,2.5-1.1,2.5-2.5V54.3l0,0l0,0v-0.1  c0-18.2-14.7-32.9-32.9-32.9S159.3,36,159.3,54.2S173.9,87,192.1,87C198.1,87,203.7,85.4,208.6,82.6z M208.6,54.3  c0-9.1-7.4-16.5-16.5-16.5s-16.5,7.4-16.5,16.5s7.4,16.5,16.5,16.5S208.6,63.4,208.6,54.3z"/>
<path class="st2" d="M100.8,87.2c8.7,0,16.6-3.4,22.5-8.9c1.1-1,0.9-2.7-0.3-3.6l-9.3-7c-1-0.7-2.3-0.6-3.3,0.1  c-2.7,2-6,3.1-9.6,3.1C96.2,70.9,92,69,89,66c-1.3-1.4-0.2-3.4,1.7-3.4H129l0,0l0,0l0,0h2c0.9,0,1.7-0.6,1.9-1.5  c0.5-2.2,0.7-4.5,0.7-6.9c0-18.2-14.7-32.9-32.9-32.9S67.8,36,67.8,54.2S82.6,87.2,100.8,87.2z M114.8,45.8c0.9,1.5-0.3,3.2-2,3.2  h-24c-1.7,0-2.9-1.7-2-3.2c2.9-4.6,8.1-7.7,14-7.7S111.9,41.1,114.8,45.8z"/>
<path class="st1" d="M209.7,24.4c0-1.1,0.9-2.1,2.1-2.1h11.3c1.1,0,2.1,0.9,2.1,2.1v48.4c0,1.1-0.9,2.1-2.1,2.1h-11.3  c-1.1,0-2.1-0.9-2.1-2.1V24.4z"/>
</svg>